<svg width="73" height="73" viewBox="0 0 73 73" fill="none" xmlns="http://www.w3.org/2000/svg">
<path d="M71.6135 46.6371C71.9358 43.7422 70.4454 40.3612 67.4085 38.2042C71.7328 34.6018 74.0573 28.774 69.9203 23.636C72.4197 18.5815 71.6358 11.9209 68.0777 7.74639C64.0434 2.85417 57.2764 0.859427 51.2909 0.968458C43.1629 1.08541 35.789 4.65528 27.7388 4.95878C19.4205 5.06831 4.13533 7.78717 5.49294 21.5417C5.66446 22.7335 6.00526 23.826 6.51507 24.8315C5.22696 27.0076 5.11374 28.8281 5.29563 30.4846C-1.53347 34.8244 -0.972374 42.6266 4.9432 47.4876C5.21828 49.0316 5.88237 50.5572 6.86246 51.95C3.2354 57.3124 6.08682 63.1469 10.7022 66.4694C14.1506 68.8981 18.1465 69.9653 21.6211 70.7749C32.5963 73.4066 44.8833 73.3008 55.674 70.7749C59.1487 69.9651 63.1446 68.8979 66.5928 66.4694C71.4242 62.9971 74.2686 56.7797 69.9783 51.3529C70.9053 49.8644 71.4777 48.2492 71.6135 46.6371ZM12.5446 27.6318C10.0929 26.163 7.91387 24.105 7.5627 21.1117C7.18378 18.4762 7.93321 15.6987 9.51839 13.8629C11.9053 11.0985 16.1401 7.8753 27.7973 7.48367C31.7928 7.34953 35.6928 6.39556 39.4645 5.47309C48.5792 2.88972 59.9524 1.81357 66.5935 9.53368C70.7345 14.3265 69.9413 22.45 65.1143 26.1252C55.4953 34.2911 37.2101 33.5622 25.4905 31.844C22.229 31.4364 19.4203 30.7667 16.904 29.7969C16.3518 29.5839 15.7605 29.9499 15.5835 30.614C15.4065 31.2781 15.7107 31.9891 16.263 32.2019C18.9188 33.2253 21.8661 33.9301 25.2731 34.3564C37.9251 36.1476 55.9537 36.8208 66.263 28.2393C67.1759 27.5224 67.9845 26.6734 68.6746 25.7228C69.6444 26.9991 70.074 28.3887 69.9499 29.8641C69.0788 36.8827 60.273 39.5938 55.2747 40.6479C44.7383 43.1131 32.7423 43.2184 22.021 40.6479C18.7169 39.8781 14.9268 38.8702 11.7642 36.6427C8.53088 34.2971 6.20481 30.5311 7.90224 26.8899C8.89943 28.0638 10.2852 29.0621 11.5741 29.8715C12.8286 30.5926 13.7553 28.4551 12.5446 27.6318ZM6.86147 45.9599C1.74368 42.2045 0.586885 36.6203 5.93674 32.948C8.4709 39.4873 16.3444 41.9926 21.6217 43.1274C32.5979 45.7592 44.8832 45.6535 55.6744 43.1274C58.6104 42.4432 61.9174 41.5718 64.953 39.854C63.4752 46.4833 55.3049 48.8809 50.3723 49.9652C39.8366 52.4306 27.8389 52.5354 17.1186 49.9653C13.8142 49.1952 10.024 48.1873 6.86147 45.9599ZM69.9494 57.5115C69.0761 64.5305 60.2742 67.2407 55.2744 68.2955C44.738 70.7607 32.7416 70.8659 22.0206 68.2956C17.0266 67.2453 8.20633 64.5256 7.34549 57.5115C7.23297 56.1744 7.57657 54.908 8.36384 53.732C11.9462 57.2798 17.0815 58.6902 21.1955 59.6465C29.2277 61.5479 37.7386 62.0334 45.9183 61.1876C46.4962 61.1294 46.9255 60.5187 46.877 59.8238C46.8286 59.1286 46.3204 58.6126 45.7429 58.6709C37.7493 59.4972 29.446 59.025 21.595 57.1669C17.0511 56.0893 10.7783 54.4558 7.91555 49.4343C10.8184 50.9807 13.9354 51.7964 16.7187 52.4451C27.6933 55.0765 39.9812 54.9711 50.7714 52.4451C56.338 51.3054 65.175 48.2943 66.9093 40.8351C71.4491 44.5782 69.5885 49.9573 65.1056 53.1618C60.5043 56.261 55.5251 57.0552 50.57 58.0238C49.9956 58.1204 49.5951 58.7587 49.6756 59.4493C49.756 60.1399 50.2858 60.6219 50.8611 60.525C56.6283 59.3959 63.8709 58.2294 68.5614 53.226C69.6106 54.5414 70.0782 55.9802 69.9494 57.5115Z" fill="#E67F1E"/>
<path d="M14.9264 16.0899C15.4107 16.4734 16.0619 16.312 16.3809 15.7297C16.646 15.2455 17.0915 14.9564 17.5726 14.9564C18.057 14.9564 18.5043 15.2487 18.7689 15.7383C19.0868 16.3276 19.7421 16.4859 20.2216 16.1091C20.7079 15.7292 20.8461 14.9473 20.5301 14.3624C19.8765 13.1532 18.771 12.4313 17.5726 12.4313C16.3828 12.4313 15.2817 13.1453 14.6268 14.3412C14.3079 14.9235 14.442 15.7064 14.9264 16.0899Z" fill="#E67F1E"/>
<path d="M20.1888 22.542C19.465 23.9696 21.1385 25.2947 21.9431 23.9303C22.2081 23.4463 22.6536 23.1572 23.1347 23.1572C23.6193 23.1572 24.0664 23.4495 24.331 23.9391C24.649 24.5286 25.3042 24.6868 25.7836 24.3099C26.27 23.93 26.4081 23.1481 26.0921 22.5634C25.4386 21.3542 24.3331 20.6321 23.1347 20.6321C21.945 20.6321 20.8437 21.3461 20.1888 22.542Z" fill="#E67F1E"/>
<path d="M45.3666 19.9475C45.8509 20.3308 46.5022 20.1695 46.821 19.5871C47.086 19.1028 47.5315 18.8139 48.0126 18.8139C48.4972 18.8139 48.9443 19.1062 49.2089 19.5958C49.5267 20.1854 50.1821 20.3436 50.6615 19.9667C51.1479 19.5869 51.2859 18.8048 50.9699 18.2202C50.3165 17.0109 49.211 16.2888 48.0126 16.2888C46.8228 16.2888 45.7215 17.0029 45.0667 18.1989C44.7479 18.781 44.8821 19.5642 45.3666 19.9475Z" fill="#E67F1E"/>
<path d="M34.6304 30.2763C35.1146 30.6598 35.7659 30.4985 36.0849 29.9161C36.35 29.4319 36.7955 29.1428 37.2765 29.1428C37.761 29.1428 38.2083 29.4351 38.4729 29.9247C38.7908 30.5142 39.4461 30.6724 39.9255 30.2955C40.4119 29.9156 40.5499 29.1337 40.2339 28.549C39.5805 27.3398 38.4748 26.6177 37.2764 26.6177C36.0867 26.6177 34.9855 27.3317 34.3307 28.5276C34.0119 29.1099 34.146 29.8928 34.6304 30.2763Z" fill="#E67F1E"/>
<path d="M37.6445 12.9736C38.1288 13.3571 38.78 13.1956 39.099 12.6134C39.3641 12.1291 39.8096 11.84 40.2905 11.84C40.7751 11.84 41.2223 12.1323 41.4868 12.622C41.8048 13.2113 42.4601 13.3695 42.9396 12.9928C43.4259 12.6129 43.564 11.8309 43.248 11.2461C42.5944 10.0369 41.4889 9.31494 40.2905 9.31494C39.1008 9.31494 37.9996 10.029 37.3448 11.2249C37.026 11.8072 37.1601 12.5901 37.6445 12.9736Z" fill="#E67F1E"/>
<path d="M57.0076 14.7331C57.4921 15.1164 58.1433 14.9552 58.4621 14.3727C58.7271 13.8885 59.1726 13.5995 59.6536 13.5995C60.1382 13.5995 60.5854 13.8919 60.85 14.3815C61.1679 14.971 61.8232 15.1292 62.3026 14.7523C62.789 14.3725 62.927 13.5904 62.611 13.0058C61.9576 11.7966 60.8521 11.0745 59.6536 11.0745C58.4639 11.0745 57.3626 11.7885 56.7078 12.9846C56.3891 13.5669 56.5232 14.3498 57.0076 14.7331Z" fill="#E67F1E"/>
</svg>
