<svg width="24" height="20" viewBox="0 0 24 20" fill="none" xmlns="http://www.w3.org/2000/svg">
<path d="M1.5 3.875H5C5 4.84013 5.78487 5.625 6.75 5.625H8.5C9.46513 5.625 10.25 4.84013 10.25 3.875H22.5C22.983 3.875 23.375 3.48388 23.375 3C23.375 2.51612 22.983 2.125 22.5 2.125H10.25C10.25 1.15987 9.46513 0.375 8.5 0.375H6.75C5.78487 0.375 5 1.15987 5 2.125H1.5C1.017 2.125 0.625 2.51612 0.625 3C0.625 3.48388 1.017 3.875 1.5 3.875Z" fill="white"/>
<path d="M22.5 9.125H17.25C17.25 8.15987 16.4651 7.375 15.5 7.375H13.75C12.7849 7.375 12 8.15987 12 9.125H1.5C1.017 9.125 0.625 9.51612 0.625 10C0.625 10.4839 1.017 10.875 1.5 10.875H12C12 11.8401 12.7849 12.625 13.75 12.625H15.5C16.4651 12.625 17.25 11.8401 17.25 10.875H22.5C22.983 10.875 23.375 10.4839 23.375 10C23.375 9.51612 22.983 9.125 22.5 9.125Z" fill="white"/>
<path d="M22.5 16.125H10.25C10.25 15.1599 9.46513 14.375 8.5 14.375H6.75C5.78487 14.375 5 15.1599 5 16.125H1.5C1.017 16.125 0.625 16.5161 0.625 17C0.625 17.4839 1.017 17.875 1.5 17.875H5C5 18.8401 5.78487 19.625 6.75 19.625H8.5C9.46513 19.625 10.25 18.8401 10.25 17.875H22.5C22.983 17.875 23.375 17.4839 23.375 17C23.375 16.5161 22.983 16.125 22.5 16.125Z" fill="white"/>
</svg>
