<svg width="73" height="73" viewBox="0 0 73 73" fill="none" xmlns="http://www.w3.org/2000/svg">
<path d="M72.2775 31.0257C72.2192 30.6815 72.0521 30.3696 71.8042 30.1436C69.4837 28.0268 69.0919 25.6928 68.777 23.8174L68.7358 23.5731C68.6271 22.9331 68.1504 22.4399 67.5529 22.3492C67.3466 22.3179 67.1283 22.3019 66.9039 22.3019C65.5704 22.3019 63.6915 22.9078 62.5003 24.2612C62.2971 24.4923 62.1667 24.7866 62.1277 25.1023C62.0275 25.9143 61.976 26.6574 61.9306 27.313C61.7589 29.7837 61.6071 30.0457 60.9092 30.2838C60.4717 30.4331 60.1298 30.8037 59.9937 31.2761C59.3364 33.558 58.4641 35.7417 57.4084 37.802C56.887 36.7286 56.3108 35.763 55.7745 34.8646C54.4629 32.6673 53.4268 30.9314 53.7808 28.7802C54.9278 21.8078 54.3456 16.5555 52.0498 13.1691C50.7713 11.2832 48.9499 9.99746 46.7365 9.39684C47.177 5.69003 49.5659 4.00949 50.8883 3.62736C51.6358 3.41143 52.0795 2.5828 51.8791 1.77667C51.6787 0.970701 50.9103 0.491863 50.163 0.708239C47.4326 1.49714 44.5161 4.39329 43.9591 9.01909C41.7227 9.01229 39.6916 9.74875 38.0201 11.1887C34.9659 13.8202 33.1206 18.7101 32.5353 25.7224C32.3591 27.8325 31.0932 29.0637 29.3409 30.7673C27.9107 32.1581 26.3174 33.7108 25.0412 36.0581C23.4514 35.36 21.7461 34.9072 19.9653 34.7432C20.4701 31.1845 22.7913 29.5596 24.088 29.185C24.8356 28.9691 25.2792 28.1404 25.0788 27.3345C24.8785 26.5283 24.11 26.0497 23.3627 26.266C22.6586 26.4694 21.9424 26.8147 21.257 27.2919C20.9382 25.5951 20.167 24.0038 18.9992 22.7446C17.4345 21.0574 15.354 20.1283 13.1412 20.1283C12.4168 20.1283 11.6955 20.2303 10.9969 20.4313C10.5125 20.5707 10.134 20.9789 10.0047 21.5012C9.24338 24.5755 10.0654 27.8819 12.1499 30.1301C13.6003 31.6942 15.4947 32.6053 17.5266 32.7303C17.3494 33.3555 17.2177 34.021 17.1412 34.7266C8.11018 35.4583 0.969727 43.6153 0.969727 53.5372C0.969727 63.9388 8.81754 72.4012 18.4636 72.4012C22.0486 72.4012 25.4635 71.2522 28.387 69.0727C28.8474 69.2906 29.3094 69.5004 29.7735 69.6977C33.9908 71.4914 38.2529 72.401 42.4411 72.401C49.1779 72.401 55.4303 70.0275 60.5226 65.537C65.845 60.8433 69.7677 53.8983 71.8663 45.4527C72.5511 42.6981 73.1551 36.2077 72.2775 31.0257ZM31.218 33.0118C33.1028 31.1789 35.0518 29.2837 35.3266 25.9934C35.8407 19.8338 37.3355 15.6471 39.7696 13.55C41.2146 12.3051 43.0007 11.825 45.0787 12.1245C47.131 12.4199 48.7153 13.3714 49.7874 14.9528C51.6147 17.6482 52.0299 22.1229 51.0213 28.2524C50.4752 31.5707 51.9712 34.0767 53.4178 36.5004C54.2286 37.8586 55.0632 39.2592 55.6307 40.8893C50.908 48.2433 43.7418 53.6064 35.8564 55.5702C35.9237 54.896 35.9579 54.2168 35.9579 53.5372C35.9579 46.7212 32.5877 40.738 27.5501 37.4227C28.5986 35.5621 29.9261 34.268 31.218 33.0118ZM14.1313 27.9931C12.9541 26.7236 12.3854 24.9434 12.5572 23.1834C12.7509 23.1614 12.9455 23.15 13.1409 23.15C14.6051 23.15 15.9818 23.7649 17.0171 24.8812C18.1944 26.1507 18.7632 27.931 18.5912 29.6909C18.3977 29.7129 18.203 29.7241 18.008 29.7241H18.0078C16.5432 29.7243 15.1665 29.1094 14.1313 27.9931ZM18.4636 69.3792C10.3627 69.3792 3.77227 62.2726 3.77227 53.5372C3.77227 44.8017 10.3627 37.6951 18.4636 37.6951C26.5646 37.6951 33.1552 44.8017 33.1552 53.5372C33.1552 54.4081 33.0892 55.2775 32.9587 56.1329C32.0573 56.2583 31.1497 56.338 30.2379 56.3715C30.4299 55.4448 30.5302 54.4979 30.5302 53.5372C30.5302 51.8355 30.2266 50.1743 29.6278 48.5999C29.3342 47.8281 28.516 47.4585 27.7996 47.7754C27.0836 48.0921 26.7412 48.9747 27.0349 49.7468C27.4946 50.9555 27.7277 52.2306 27.7277 53.5372C27.7277 54.4873 27.6028 55.4206 27.3587 56.3244C25.3532 56.1852 23.3448 55.8279 21.3659 55.2561C20.9629 55.1396 20.5324 55.223 20.1921 55.4835C18.9466 56.4369 17.6914 57.6362 16.947 59.9357C16.7552 60.5283 16.923 61.1871 17.3688 61.5908C19.9429 63.9225 22.6324 65.899 25.4027 67.5036C23.2821 68.7352 20.921 69.3792 18.4636 69.3792ZM69.1593 44.6707C65.3146 60.1424 55.3266 69.3792 42.4413 69.3792C34.919 69.3792 26.9787 66.0536 19.98 59.9929C20.351 59.2749 20.8096 58.7807 21.3024 58.3588C23.9337 59.0588 26.6096 59.4133 29.2668 59.4133C36.7873 59.4133 44.0387 56.6498 50.2371 51.4216C53.3884 48.7636 56.1196 45.5607 58.3074 42.0092C58.3335 41.9712 58.358 41.9319 58.3806 41.8914C60.1076 39.0659 61.491 36.0217 62.4665 32.8561C64.4304 31.7906 64.5802 29.6323 64.7255 27.5386C64.7587 27.0601 64.7928 26.5693 64.8448 26.0515C65.2175 25.7605 65.7115 25.53 66.2067 25.4116C66.5801 27.3328 67.3062 29.7989 69.6008 32.0762C70.25 36.5279 69.7786 42.178 69.1593 44.6707Z" fill="#E67F1E"/>
</svg>
