<svg width="20" height="20" viewBox="0 0 20 20" fill="none" xmlns="http://www.w3.org/2000/svg">
<path d="M19.8573 15.4858C18.0733 12.5109 16.9999 11.212 16.9999 8C16.9981 6.31759 16.3908 4.69203 15.2891 3.42049C14.1874 2.14896 12.6649 1.31639 10.9999 1.075V1C10.9999 0.734784 10.8945 0.48043 10.707 0.292893C10.5195 0.105357 10.2651 0 9.99988 0C9.73467 0 9.48031 0.105357 9.29278 0.292893C9.10524 0.48043 8.99988 0.734784 8.99988 1V1.0792C7.32456 1.39644 5.81101 2.28462 4.717 3.59247C3.62298 4.90033 3.01616 6.54698 2.99988 8.252C2.99988 11.212 1.73788 12.826 0.142484 15.4859C0.0515414 15.6376 0.0024749 15.8108 0.000289928 15.9876C-0.00189504 16.1645 0.0428797 16.3388 0.130046 16.4928C0.217213 16.6467 0.343651 16.7747 0.496462 16.8638C0.649273 16.953 0.822988 16.9999 0.999884 17H18.9999C19.1768 17 19.3505 16.953 19.5034 16.8639C19.6562 16.7747 19.7826 16.6467 19.8698 16.4927C19.957 16.3388 20.0017 16.1645 19.9995 15.9876C19.9973 15.8107 19.9483 15.6375 19.8573 15.4858Z" fill="#384144"/>
<path d="M12 18H8C7.73478 18 7.48043 18.1054 7.29289 18.2929C7.10536 18.4805 7 18.7348 7 19C7 19.2652 7.10536 19.5196 7.29289 19.7071C7.48043 19.8947 7.73478 20 8 20H12C12.2652 20 12.5196 19.8947 12.7071 19.7071C12.8946 19.5196 13 19.2652 13 19C13 18.7348 12.8946 18.4805 12.7071 18.2929C12.5196 18.1054 12.2652 18 12 18Z" fill="#384144"/>
</svg>
