<svg width="73" height="73" viewBox="0 0 73 73" fill="none" xmlns="http://www.w3.org/2000/svg">
<path d="M66.2989 19.1711C69.489 19.1711 72.0847 16.5753 72.0847 13.3852C72.0847 12.1274 71.6649 10.9109 70.9055 9.91366C71.6649 8.91639 72.0847 7.69988 72.0847 6.44213C72.0847 3.25199 69.489 0.65625 66.2989 0.65625C65.0411 0.65625 63.8246 1.07607 62.8273 1.83546C61.8301 1.07607 60.6135 0.65625 59.3558 0.65625C56.1657 0.65625 53.5699 3.25199 53.5699 6.44213C53.5699 8.81186 55.0051 10.8477 57.0482 11.7421L52.9913 15.799L52.7704 15.5781C51.3561 14.1638 49.4769 13.3852 47.4761 13.3852C45.1341 13.3852 42.8948 14.5039 41.4879 16.3798L41.4427 16.4414C40.5387 14.2299 38.6328 12.5393 36.6021 11.7003C36.5824 9.58256 35.7552 7.57275 34.2612 6.07995C32.487 4.30576 30.0309 3.47291 27.5543 3.78085C26.022 1.81117 23.6896 0.65625 21.169 0.65625C18.6484 0.65625 16.3159 1.81117 14.7836 3.77972C12.3122 3.4763 9.85203 4.30576 8.07784 6.07995C6.58391 7.57275 5.75558 9.58256 5.73693 11.7003C2.93044 12.8586 0.33979 15.6244 0.33979 19.1711C0.33979 21.5606 1.76649 23.4975 2.9005 24.6598C2.23772 27.4007 3.01972 30.2569 5.02613 32.2611C5.76688 33.003 6.63137 33.5815 7.59757 33.9816C8.7943 34.4794 9.5972 35.7405 9.5972 37.1237V44.629H3.81132C1.89757 44.629 0.33979 46.1867 0.33979 48.1005C0.33979 49.7103 1.44724 51.0562 2.93553 51.446L7.54672 65.2802C8.96663 69.5393 12.9371 72.4012 17.4268 72.4012H54.9989C59.4891 72.4012 63.459 69.5393 64.8778 65.2813L69.489 51.4472C70.9773 51.0562 72.0847 49.7103 72.0847 48.1005C72.0847 46.1867 70.527 44.629 68.6132 44.629H66.2401C65.7734 38.5493 61.6843 33.4781 56.1261 31.5678L56.4951 31.2728C58.3133 29.8185 59.3558 27.6488 59.3558 25.3203C59.3558 23.3139 58.5422 21.3487 57.1222 19.9299L56.942 19.7497L60.9989 15.6928C61.8933 17.7359 63.9291 19.1711 66.2989 19.1711ZM8.4841 31.8446C7.79985 31.561 7.18793 31.1514 6.66358 30.6259C5.10749 29.0709 4.58541 26.7933 5.30073 24.6807L5.54369 23.9619L4.98262 23.4529C4.11191 22.6658 2.65414 21.0617 2.65414 19.1711C2.65414 16.4284 5.02274 14.2632 7.25177 13.618L8.17842 13.3496L8.0801 12.3902C7.90325 10.6346 8.49879 8.92995 9.71416 7.71627C11.112 6.31952 13.1083 5.74319 15.0593 6.17375L15.8515 6.34834L16.2854 5.66353C17.3562 3.97748 19.1823 2.9706 21.169 2.9706C23.1556 2.9706 24.9818 3.97748 26.0536 5.66353L26.4876 6.34834L27.2797 6.17375C29.2308 5.74206 31.2282 6.31952 32.6249 7.71627C33.8403 8.93108 34.4347 10.6346 34.2578 12.3902L34.1606 13.3496L35.0873 13.618C37.3152 14.2632 39.6838 16.4284 39.6838 19.1711C39.6838 21.0617 38.226 22.6658 37.3553 23.4529L36.7942 23.9619L37.0372 24.6807C37.7525 26.7922 37.2304 29.0709 35.6732 30.627C35.15 31.1514 34.5381 31.561 33.855 31.8446C31.926 32.6442 30.6428 34.485 30.4637 36.6146C30.071 36.5632 29.6743 36.5287 29.2692 36.5287C28.4686 36.5287 27.6967 36.6412 26.9549 36.8333V30.8852L27.9742 26.8074L35.7275 21.269L34.3827 19.3864L28.8387 23.3461L30.3908 17.137L28.1465 16.5765L24.675 30.4626L24.645 37.7786C23.7715 38.2854 22.9895 38.9301 22.3261 39.6833V15.6995H20.0118V44.629H17.6974V30.7428L14.1914 16.5765L11.9472 17.137L13.4993 23.3461L7.95523 19.3864L6.61047 21.269L14.3638 26.8074L15.3831 30.8852V44.629H11.9116V37.1237C11.9116 34.7788 10.5657 32.708 8.4841 31.8446ZM29.2692 38.8431C32.7023 38.8431 35.554 41.3507 36.1083 44.629H22.4301C22.9844 41.3507 25.8361 38.8431 29.2692 38.8431ZM10.1272 65.4581H11.9116V67.903C11.177 67.2182 10.5713 66.3933 10.1272 65.4581ZM55.8843 65.4581H58.1986V69.4043C57.4697 69.7179 56.6956 69.9269 55.8843 70.0162V65.4581ZM53.5699 70.0868H51.2556V65.4581H53.5699V70.0868ZM48.9412 70.0868H46.6269V65.4581H48.9412V70.0868ZM44.3125 70.0868H41.9981V65.4581H44.3125V70.0868ZM39.6838 70.0868H37.3694V65.4581H39.6838V70.0868ZM35.0551 70.0868H32.7407V65.4581H35.0551V70.0868ZM30.4264 70.0868H28.112V65.4581H30.4264V70.0868ZM25.7977 70.0868H23.4833V65.4581H25.7977V70.0868ZM21.169 70.0868H18.8546V65.4581H21.169V70.0868ZM16.5403 70.0162C15.7289 69.9269 14.9548 69.719 14.2259 69.4043V65.4581H16.5403V70.0162ZM60.513 67.903V65.4581H62.2973C61.8532 66.3933 61.2475 67.2182 60.513 67.903ZM63.1511 63.1438H9.27344L5.41656 51.572H67.008L63.1511 63.1438ZM69.7704 48.1005C69.7704 48.739 69.2517 49.2577 68.6132 49.2577H3.81132C3.17284 49.2577 2.65414 48.739 2.65414 48.1005C2.65414 47.462 3.17284 46.9433 3.81132 46.9433H68.6132C69.2517 46.9433 69.7704 47.462 69.7704 48.1005ZM38.5854 44.629C38.7639 42.657 39.4002 40.8207 40.3782 39.2109L45.4652 41.2478L51.2499 38.9335L57.0392 41.2478L62.134 39.2109C63.1121 40.8218 63.7483 42.6581 63.9269 44.6301H38.5854V44.629ZM60.7051 37.2876L57.0381 38.7538L51.2488 36.4394L45.464 38.7538L41.8049 37.2893C44.1379 34.698 47.5038 33.0572 51.2556 33.0572C55.0073 33.0572 58.3732 34.698 60.7051 37.2876ZM55.0486 29.4653L54.4265 29.9631L48.6011 24.1377L46.9647 25.774L51.9686 30.7773C51.7313 30.7671 51.4963 30.7428 51.2556 30.7428C50.3216 30.7428 49.4107 30.84 48.5237 31.0033L46.2878 28.7675L44.6515 30.4038L45.9686 31.7209C45.1041 32.0469 44.2792 32.4487 43.4989 32.9216L41.6591 31.0819L40.0228 32.7182L41.5851 34.2805C39.5425 35.9999 37.9735 38.2555 37.0711 40.8241C36.0422 39.212 34.5319 37.9396 32.7407 37.2113V37.1248C32.7407 35.7428 33.5436 34.4805 34.7415 33.9838C35.7066 33.5827 36.5711 33.0041 37.3107 32.2645C39.3171 30.2603 40.1002 27.403 39.4374 24.662C40.502 23.5704 41.8094 21.7911 41.9671 19.5994L43.3395 17.7709C44.3114 16.4748 45.8584 15.7018 47.4761 15.7018C48.8582 15.7018 50.156 16.2397 51.1329 17.2166L55.4859 21.5702C56.4742 22.5556 57.0414 23.9224 57.0414 25.3203C57.0414 26.9425 56.3148 28.4528 55.0486 29.4653ZM54.6276 17.4353L60.852 11.211C62.1075 9.95547 62.8273 8.21745 62.8273 6.44213H60.513C60.513 7.60835 60.0406 8.74971 59.2157 9.57465L58.9207 9.86959C57.2138 9.65318 55.8843 8.20784 55.8843 6.44213C55.8843 4.52838 57.442 2.9706 59.3558 2.9706C60.3553 2.9706 61.2792 3.39776 61.9561 4.17185L62.8273 5.168L63.6986 4.17185C64.3755 3.39776 65.2993 2.9706 66.2989 2.9706C68.2126 2.9706 69.7704 4.52838 69.7704 6.44213C69.7704 7.44167 69.3432 8.36549 68.5691 9.04239L67.573 9.91366L68.5691 10.7849C69.3432 11.4618 69.7704 12.3857 69.7704 13.3852C69.7704 15.2989 68.2126 16.8567 66.2989 16.8567C64.5331 16.8567 63.0878 15.5272 62.8714 13.8203L63.1663 13.5253C63.9913 12.7004 65.1326 12.228 66.2989 12.228V9.91366C64.5235 9.91366 62.7855 10.6335 61.53 11.889L55.3057 18.1133L54.6276 17.4353Z" fill="#E67F1E"/>
<path d="M31.5836 53.8864H40.8411V56.2007H31.5836V53.8864Z" fill="#E67F1E"/>
<path d="M31.5836 58.5151H40.8411V60.8295H31.5836V58.5151Z" fill="#E67F1E"/>
<path d="M22.3261 53.8864H24.6404V60.8294H22.3261V53.8864Z" fill="#E67F1E"/>
<path d="M26.9546 53.8864H29.269V60.8294H26.9546V53.8864Z" fill="#E67F1E"/>
<path d="M52.4125 53.8864H61.6699V56.2007H52.4125V53.8864Z" fill="#E67F1E"/>
<path d="M52.4125 58.5151H61.6699V60.8295H52.4125V58.5151Z" fill="#E67F1E"/>
<path d="M43.1549 53.8864H45.4693V60.8294H43.1549V53.8864Z" fill="#E67F1E"/>
<path d="M47.784 53.8864H50.0983V60.8294H47.784V53.8864Z" fill="#E67F1E"/>
<path d="M10.7543 53.8864H20.0117V56.2007H10.7543V53.8864Z" fill="#E67F1E"/>
<path d="M10.7543 58.5151H20.0117V60.8295H10.7543V58.5151Z" fill="#E67F1E"/>
</svg>
